<svg width="20" height="20" viewBox="0 0 20 20" fill="none" xmlns="http://www.w3.org/2000/svg">
<path d="M8.33332 2.08334C9.4983 2.0833 10.6401 2.40885 11.6299 3.02328C12.6197 3.6377 13.418 4.51653 13.9349 5.5606C14.4517 6.60466 14.6664 7.77239 14.5548 8.93202C14.4432 10.0916 14.0098 11.197 13.3033 12.1233L17.2558 16.0775C17.4053 16.2275 17.492 16.4287 17.4985 16.6403C17.505 16.852 17.4306 17.0581 17.2906 17.2169C17.1506 17.3757 16.9554 17.4753 16.7446 17.4953C16.5338 17.5154 16.3233 17.4545 16.1558 17.325L16.0775 17.2558L12.1233 13.3033C11.3342 13.9051 10.413 14.3103 9.43619 14.4853C8.45934 14.6604 7.45484 14.6003 6.50582 14.3101C5.5568 14.0199 4.69053 13.5078 3.9787 12.8163C3.26687 12.1248 2.72994 11.2737 2.41234 10.3335C2.09475 9.39328 2.00561 8.39094 2.15232 7.40944C2.29902 6.42793 2.67734 5.49546 3.25598 4.6892C3.83462 3.88294 4.59694 3.22606 5.47986 2.77292C6.36277 2.31977 7.34091 2.0834 8.33332 2.08334ZM8.33332 3.75001C7.11774 3.75001 5.95196 4.2329 5.09241 5.09244C4.23287 5.95198 3.74999 7.11777 3.74999 8.33334C3.74999 9.54892 4.23287 10.7147 5.09241 11.5742C5.95196 12.4338 7.11774 12.9167 8.33332 12.9167C9.5489 12.9167 10.7147 12.4338 11.5742 11.5742C12.4338 10.7147 12.9167 9.54892 12.9167 8.33334C12.9167 7.11777 12.4338 5.95198 11.5742 5.09244C10.7147 4.2329 9.5489 3.75001 8.33332 3.75001Z" fill="white"/>
</svg>
